<svg width="608.183837890625px" height="165.2px" xmlns="http://www.w3.org/2000/svg" viewBox="-54.0919189453125 -7.599999999999994 608.183837890625 165.2" style="background: rgba(0, 0, 0, 0);" preserveAspectRatio="xMidYMid"><defs><filter id="editing-extrusion" x="-100%" y="-100%" width="300%" height="300%"><feFlood result="color1" flood-color="#444444"></feFlood><feConvolveMatrix order="8,8" divisor="1" kernelMatrix="1 0 0 0 0 0 0 0 0 1 0 0 0 0 0 0 0 0 1 0 0 0 0 0 0 0 0 1 0 0 0 0 0 0 0 0 1 0 0 0 0 0 0 0 0 1 0 0 0 0 0 0 0 0 1 0 0 0 0 0 0 0 0 1" in="SourceAlpha" result="extrude"></feConvolveMatrix><feComposite in="color1" in2="extrude" result="comp-extrude" operator="in"></feComposite><feOffset dx="4" dy="4" in="comp-extrude" result="offset-extrude"></feOffset><feMerge><feMergeNode in="offset-extrude"></feMergeNode><feMergeNode in="SourceGraphic"></feMergeNode></feMerge></filter></defs><g filter="url(#editing-extrusion)"><g transform="translate(33.67810773849487, 106.30500411987305)"><path d="M20.20 0L0.73 0L11.83-59.79L11.83-59.79Q20.84-60.79 33.99-60.79L33.99-60.79L33.99-60.79Q47.14-60.79 53.23-56.97L53.23-56.97L53.23-56.97Q59.33-53.14 59.33-45.45L59.33-45.45L59.33-45.45Q59.33-37.77 55.37-32.94L55.37-32.94L55.37-32.94Q51.41-28.12 44.59-26.57L44.59-26.57L44.59-26.57Q46.14-19.02 49.69-12.92L49.69-12.92L49.69-12.92Q52.96-7.19 56.78-5.37L56.78-5.37L56.78-5.37Q55.42-1.55 52.64 0.14L52.64 0.14L52.64 0.14Q49.87 1.82 45.91 1.82L45.91 1.82L45.91 1.82Q41.95 1.82 38.86-0.50L38.86-0.50L38.86-0.50Q35.76-2.82 33.31-7.10L33.31-7.10L33.31-7.10Q28.12-16.38 27.57-31.03L27.57-31.03L28.21-31.03L28.21-31.03Q34.94-31.21 38.31-34.72L38.31-34.72L38.31-34.72Q41.68-38.22 41.68-45.59L41.68-45.59L41.68-45.59Q41.68-54.78 33.94-55.15L33.94-55.15L31.94-55.15L31.94-55.15Q31.12-55.15 30.67-55.05L30.67-55.05L20.20 0ZM100.37-15.38L100.37-15.38L100.37-15.38Q102.65-13.83 102.65-10.42L102.65-10.42L102.65-10.42Q102.65-7.01 100.92-4.82L100.92-4.82L100.92-4.82Q99.19-2.64 96.37-1.18L96.37-1.18L96.37-1.18Q90.54 1.82 84.27 1.82L84.27 1.82L84.27 1.82Q77.99 1.82 74.30 0.45L74.30 0.45L74.30 0.45Q70.62-0.91 68.16-3.46L68.16-3.46L68.16-3.46Q63.34-8.28 63.34-17.11L63.34-17.11L63.34-17.11Q63.34-30.85 70.80-39.22L70.80-39.22L70.80-39.22Q78.81-48.23 92.73-48.23L92.73-48.23L92.73-48.23Q101.37-48.23 105.65-44.59L105.65-44.59L105.65-44.59Q108.84-41.86 108.84-37.40L108.84-37.40L108.84-37.40Q108.84-21.38 81.17-21.38L81.17-21.38L81.17-21.38Q80.81-19.02 80.81-17.02L80.81-17.02L80.81-17.02Q80.81-12.83 82.67-11.24L82.67-11.24L82.67-11.24Q84.54-9.65 88.00-9.65L88.00-9.65L88.00-9.65Q91.45-9.65 95.14-11.24L95.14-11.24L95.14-11.24Q98.83-12.83 100.37-15.38ZM81.81-25.30L81.81-25.30L81.81-25.30Q88.27-25.30 92.00-29.30L92.00-29.30L92.00-29.30Q95.73-33.12 95.73-39.22L95.73-39.22L95.73-39.22Q95.73-41.31 94.96-42.45L94.96-42.45L94.96-42.45Q94.19-43.59 92.64-43.59L92.64-43.59L92.64-43.59Q91.09-43.59 89.77-43.00L89.77-43.00L89.77-43.00Q88.45-42.41 87.09-40.40L87.09-40.40L87.09-40.40Q83.72-35.85 81.81-25.30ZM139.14-31.94L139.14-31.94L139.14-31.94Q140.41-35.31 140.41-38.22L140.41-38.22L140.41-38.22Q140.41-43.59 136.04-43.59L136.04-43.59L136.04-43.59Q133.77-43.59 131.90-41.54L131.90-41.54L131.90-41.54Q130.04-39.49 130.04-36.95L130.04-36.95L130.04-36.95Q130.04-35.13 131.50-33.67L131.50-33.67L131.50-33.67Q133.59-31.67 138.96-28.39L138.96-28.39L138.96-28.39Q144.33-25.12 146.37-22.43L146.37-22.43L146.37-22.43Q148.42-19.75 148.42-16.06L148.42-16.06L148.42-16.06Q148.42-12.38 146.65-9.01L146.65-9.01L146.65-9.01Q144.87-5.64 141.69-3.28L141.69-3.28L141.69-3.28Q134.86 1.82 123.94 1.82L123.94 1.82L123.94 1.82Q118.03 1.82 113.48-1.27L113.48-1.27L113.48-1.27Q108.93-4.28 108.93-7.83L108.93-7.83L108.93-7.83Q108.93-11.38 111.52-13.47L111.52-13.47L111.52-13.47Q114.11-15.56 117.94-15.56L117.94-15.56L117.94-15.56Q121.76-15.56 124.12-14.11L124.12-14.11L124.12-14.11Q122.94-11.10 122.94-9.10L122.94-9.10L122.94-9.10Q122.94-3.09 128.04-3.09L128.04-3.09L128.04-3.09Q130.22-3.09 131.68-4.46L131.68-4.46L131.68-4.46Q133.13-5.82 133.13-8.19L133.13-8.19L133.13-8.19Q133.13-12.83 125.31-17.75L125.31-17.75L125.31-17.75Q118.94-21.93 117.48-23.57L117.48-23.57L117.48-23.57Q115.02-26.48 115.02-30.12L115.02-30.12L115.02-30.12Q115.02-33.76 116.75-37.22L116.75-37.22L116.75-37.22Q118.48-40.68 121.67-43.13L121.67-43.13L121.67-43.13Q128.31-48.23 139.87-48.23L139.87-48.23L139.87-48.23Q145.78-48.23 149.29-45.86L149.29-45.86L149.29-45.86Q152.79-43.50 152.79-39.49L152.79-39.49L152.79-39.49Q152.79-35.49 150.38-33.21L150.38-33.21L150.38-33.21Q147.97-30.94 143.60-30.94L143.60-30.94L143.60-30.94Q140.59-30.94 139.14-31.94ZM185.37-3.82L185.37-3.82L185.37-3.82Q181.00 1.82 170.17 1.82L170.17 1.82L170.17 1.82Q164.53 1.82 160.43-1.59L160.43-1.59L160.43-1.59Q156.34-5.00 156.34-9.92L156.34-9.92L156.34-9.92Q156.34-12.65 156.61-14.01L156.61-14.01L162.71-46.41L181.18-48.23L174.54-13.10L174.54-13.10Q174.17-11.10 174.17-9.92L174.17-9.92L174.17-9.92Q174.17-4.64 177.36-4.64L177.36-4.64L177.36-4.64Q180.91-4.64 183.46-9.46L183.46-9.46L183.46-9.46Q184.27-11.01 184.64-13.01L184.64-13.01L191.10-46.41L209.03-48.23L202.29-12.74L202.29-12.74Q202.02-11.38 202.02-9.92L202.02-9.92L202.02-9.92Q202.02-8.46 202.84-6.87L202.84-6.87L202.84-6.87Q203.66-5.28 206.30-4.91L206.30-4.91L206.30-4.91Q205.75-2.73 203.84-1.27L203.84-1.27L203.84-1.27Q199.84 1.82 195.51 1.82L195.51 1.82L195.51 1.82Q191.19 1.82 188.64 0.27L188.64 0.27L188.64 0.27Q186.09-1.27 185.37-3.82ZM279.46 1.82L279.46 1.82L279.46 1.82Q268.45 1.82 268.45-6.73L268.45-6.73L268.45-6.73Q268.45-10.46 270.04-17.70L270.04-17.70L270.04-17.70Q271.63-24.93 272.18-27.85L272.18-27.85L272.18-27.85Q273.45-34.49 273.45-36.58L273.45-36.58L273.45-36.58Q273.45-41.22 270.00-41.22L270.00-41.22L270.00-41.22Q267.72-41.22 265.54-38.08L265.54-38.08L265.54-38.08Q263.35-34.94 262.35-28.66L262.35-28.66L256.71 0L238.97 1.82L243.88-22.93L243.88-22.93Q244.70-27.03 245.43-31.67L245.43-31.67L245.43-31.67Q246.15-36.31 246.15-37.04L246.15-37.04L246.15-37.04Q246.15-41.22 243.06-41.22L243.06-41.22L243.06-41.22Q240.97-41.22 238.69-38.13L238.69-38.13L238.69-38.13Q236.42-35.03 235.14-28.66L235.14-28.66L229.59 0L211.67 1.82L221.22-46.41L236.05-48.23L234.51-39.04L234.51-39.04Q236.87-43.95 241.24-46.09L241.24-46.09L241.24-46.09Q245.61-48.23 252.43-48.23L252.43-48.23L252.43-48.23Q256.35-48.23 258.89-46.32L258.89-46.32L258.89-46.32Q261.44-44.41 262.26-41.31L262.26-41.31L262.26-41.31Q263.81-44.50 267.77-46.36L267.77-46.36L267.77-46.36Q271.73-48.23 276.59-48.23L276.59-48.23L276.59-48.23Q281.46-48.23 283.87-47.18L283.87-47.18L283.87-47.18Q286.29-46.14 287.74-44.41L287.74-44.41L287.74-44.41Q290.20-41.22 290.20-35.40L290.20-35.40L290.20-35.40Q290.20-29.67 287.74-17.75L287.74-17.75L287.74-17.75Q286.47-11.92 286.47-9.78L286.47-9.78L286.47-9.78Q286.47-7.64 287.70-6.37L287.70-6.37L287.70-6.37Q288.92-5.10 290.75-4.91L290.75-4.91L290.75-4.91Q289.83-1.82 286.70 0L286.70 0L286.70 0Q283.56 1.82 279.46 1.82ZM334.61-15.38L334.61-15.38L334.61-15.38Q336.88-13.83 336.88-10.42L336.88-10.42L336.88-10.42Q336.88-7.01 335.15-4.82L335.15-4.82L335.15-4.82Q333.42-2.64 330.60-1.18L330.60-1.18L330.60-1.18Q324.78 1.82 318.50 1.82L318.50 1.82L318.50 1.82Q312.22 1.82 308.54 0.45L308.54 0.45L308.54 0.45Q304.85-0.91 302.39-3.46L302.39-3.46L302.39-3.46Q297.57-8.28 297.57-17.11L297.57-17.11L297.57-17.11Q297.57-30.85 305.03-39.22L305.03-39.22L305.03-39.22Q313.04-48.23 326.96-48.23L326.96-48.23L326.96-48.23Q335.61-48.23 339.88-44.59L339.88-44.59L339.88-44.59Q343.07-41.86 343.07-37.40L343.07-37.40L343.07-37.40Q343.07-21.38 315.41-21.38L315.41-21.38L315.41-21.38Q315.04-19.02 315.04-17.02L315.04-17.02L315.04-17.02Q315.04-12.83 316.91-11.24L316.91-11.24L316.91-11.24Q318.77-9.65 322.23-9.65L322.23-9.65L322.23-9.65Q325.69-9.65 329.37-11.24L329.37-11.24L329.37-11.24Q333.06-12.83 334.61-15.38ZM316.04-25.30L316.04-25.30L316.04-25.30Q322.50-25.30 326.23-29.30L326.23-29.30L326.23-29.30Q329.97-33.12 329.97-39.22L329.97-39.22L329.97-39.22Q329.97-41.31 329.19-42.45L329.19-42.45L329.19-42.45Q328.42-43.59 326.87-43.59L326.87-43.59L326.87-43.59Q325.32-43.59 324.01-43.00L324.01-43.00L324.01-43.00Q322.69-42.41 321.32-40.40L321.32-40.40L321.32-40.40Q317.95-35.85 316.04-25.30ZM386.11 1.82L386.11 1.82L386.11 1.82Q374.46 1.82 373.37-14.74L373.37-14.74L357.72-14.74L357.72-14.74Q355.90-10.56 354.63-6.92L354.63-6.92L352.26 0L339.52 0L368.19-60.06L387.75-60.06L391.57-15.83L391.57-15.83Q392.48-6.28 396.12-3.46L396.12-3.46L396.12-3.46Q393.48 1.82 386.11 1.82ZM365.55-32.94L360.54-21.38L373.10-21.38L372.01-44.77L372.01-47.23L365.55-32.94ZM420.24 0L400.40 0L411.96-60.06L431.98-60.06L420.24 0Z" fill="#000000"></path></g></g><style>text {
  font-size: 64px;
  font-family: Arial Black;
  dominant-baseline: central;
  text-anchor: middle;
}</style></svg>